<svg xmlns="http://www.w3.org/2000/svg" viewBox="0 0 737.89 560.86"><defs><style>.cls-1{fill:#1d1d1b;}.cls-2{fill:#fff;}</style></defs><g id="Capa_2" data-name="Capa 2"><g id="Capa_1-2" data-name="Capa 1"><path class="cls-1" d="M737.89,176.26c0-4.57-.19-9.08-.57-13.5-.08-.94-.18-1.86-.28-2.78a29.49,29.49,0,0,0,.82-6.88c0-.26,0-.52,0-.78s0-.52,0-.78,0-.52,0-.78,0-.52,0-.77,0-.52,0-.78,0-.52,0-.78,0-.52,0-.78,0-.52,0-.78,0-.52,0-.78,0-.52,0-.78,0-.52,0-.78,0-.52,0-.78,0-.52,0-.78,0-.52,0-.78,0-.52,0-.78,0-.52,0-.78,0-.51,0-.77,0-.52,0-.78,0-.52,0-.78,0-.52,0-.78,0-.52,0-.78,0-.52,0-.78,0-.52,0-.78,0-.52,0-.78,0-.52,0-.78,0-.52,0-.78,0-.52,0-.78,0-.52,0-.78,0-.52,0-.78,0-.51,0-.77,0-.52,0-.78,0-.52,0-.78,0-.52,0-.78,0-.52,0-.78,0-.52,0-.78,0-.52,0-.78,0-.52,0-.78,0-.52,0-.78,0-.52,0-.78,0-.52,0-.78,0-.52,0-.78,0-.51,0-.77,0-.52,0-.78,0-.52,0-.78,0-.52,0-.78,0-.52,0-.78,0-.52,0-.78,0-.52,0-.78,0-.52,0-.78,0-.52,0-.78,0-.52,0-.78,0-.52,0-.78,0-.52,0-.78,0-.52,0-.78,0-.51,0-.77,0-.52,0-.78,0-.52,0-.78,0-.52,0-.78,0-.52,0-.78,0-.52,0-.78,0-.52,0-.78,0-.52,0-.78,0-.52,0-.78,0-.52,0-.78,0-.52,0-.78,0-.52,0-.78,0-.52,0-.77,0-.52,0-.78,0-.52,0-.78,0-.52,0-.78,0-.52,0-.78,0-.52,0-.78,0-.52,0-.78,0-.52,0-.78,0-.52,0-.78,0-.52,0-.78,0-.52,0-.78,0-.52,0-.78,0-.52,0-.78,0-.51,0-.77,0-.52,0-.78,0-.52,0-.78,0-.52,0-.78,0-.52,0-.78,0-.52,0-.78,0-.52,0-.78,0-.52,0-.78,0-.52,0-.78,0-.52,0-.78,0-.52,0-.78,0-.52,0-.78,0-.52,0-.78,0-.51,0-.77,0-.52,0-.78,0-.52,0-.78,0-.52,0-.78,0-.52,0-.78,0-.52,0-.78,0-.52,0-.78,0-.52,0-.78a28.88,28.88,0,0,0-24.12-29.34,35.91,35.91,0,0,0-6-.48,50.27,50.27,0,0,0-6.93.53v-.53c0-.25,0-.51,0-.77s0-.52,0-.78,0-.52,0-.78,0-.52,0-.78,0-.52,0-.78,0-.52,0-.78a44.48,44.48,0,0,0-.17-5.4c-1.51-15.81-14.12-27.73-29.34-27.73a28.58,28.58,0,0,0-6.11.66A29.54,29.54,0,0,0,653,14.13a37,37,0,0,0-4.14-.22c-1.09,0-2.21,0-3.35.13-3.8.28-7.48.9-10.72,1.45-2.19.37-4.25.72-5.9.9-1.92.2-4.67.32-7.58.45-8.43.39-18,.83-26.09,3.67a31.86,31.86,0,0,0-8,4.16,74.91,74.91,0,0,0-21.68-3,93.46,93.46,0,0,0-11.38.71c-5.21.65-22.89,3.25-31.72,9.2a30.93,30.93,0,0,0-12.15,16,175,175,0,0,0-6.7-22.74C495.32,3.24,479.17,0,470.28,0a41.84,41.84,0,0,0-6.14.46A37.56,37.56,0,0,0,435,23.57c-.11.29-.22.58-.34.88A35.55,35.55,0,0,0,427,23.08c-.63,0-1.3-.08-2-.08-7,0-15.15,2.52-29.78,7.81L392,32l-3.58,1.2c-5.46,1.8-10.32,3.44-14.6,5.17A31.72,31.72,0,0,0,362,36.13a39.5,39.5,0,0,0-5.35.38C348.1,37.7,338.41,40.88,329,44c-3.78,1.24-7.35,2.41-10.19,3.22-.84.24-2.29.57-3.69.88A77.46,77.46,0,0,0,299.31,53a33.72,33.72,0,0,0-21.78-1.4A55.82,55.82,0,0,0,254.18,37a68.32,68.32,0,0,0-21.27-3.24c-22.13,0-43.19,9.43-53.77,15a78.07,78.07,0,0,0-16.22,10.83,44.87,44.87,0,0,0-4.76,5l-.87-3.08-.79-1.67A32.67,32.67,0,0,0,126.69,40.8a35.77,35.77,0,0,0-5.81.48,35.36,35.36,0,0,0-15.23,6.81C98.3,53.78,94.31,62.44,91.54,70.94A29,29,0,0,0,89,67.82a29.77,29.77,0,0,0-22.18-9.74,32.39,32.39,0,0,0-12,2.36C35.4,68.14,33.43,88.27,32.58,96.87c-.11,1.13-.22,2.3-.33,3-1.78,11.75-3.78,24.34-6.29,36.66-.14.65-.5,2.06-.83,3.31-1.43,5.51-3.36,13-3.35,20.79v20C12.6,186.85-.23,198.2,0,216.41v77.93a41.5,41.5,0,0,0,.61,7.28C3.13,316.26,13.68,327,28.11,330.7c0,.21,0,.43,0,.64s0,.52,0,.78,0,.52,0,.78,0,.52,0,.78,0,.52,0,.78,0,.52,0,.78,0,.52,0,.77,0,.53,0,.78,0,.52,0,.78,0,.52,0,.78,0,.52,0,.78,0,.52,0,.78,0,.52,0,.78,0,.52,0,.78,0,.52,0,.78,0,.52,0,.78,0,.52,0,.78,0,.52,0,.78,0,.52,0,.78,0,.52,0,.77,0,.53,0,.78,0,.52,0,.78,0,.52,0,.78,0,.52,0,.78,0,.52,0,.78,0,.52,0,.78,0,.52,0,.78,0,.52,0,.78,0,.52,0,.78,0,.52,0,.78,0,.52,0,.78,0,.52,0,.78,0,.52,0,.77,0,.52,0,.78,0,.52,0,.78,0,.52,0,.78,0,.52,0,.78,0,.52,0,.78,0,.52,0,.78,0,.52,0,.78,0,.52,0,.78,0,.52,0,.78,0,.52,0,.78,0,.52,0,.78,0,.52,0,.77,0,.53,0,.78,0,.52,0,.78,0,.52,0,.78,0,.52,0,.78,0,.52,0,.78,0,.52,0,.78,0,.52,0,.78,0,.52,0,.78,0,.52,0,.78,0,.52,0,.78,0,.52,0,.78,0,.52,0,.78,0,.52,0,.77,0,.52,0,.78,0,.52,0,.78,0,.52,0,.78,0,.52,0,.78,0,.52,0,.78,0,.52,0,.78,0,.52,0,.78,0,.52,0,.78,0,.52,0,.78,0,.52,0,.78,0,.52,0,.78,0,.52,0,.77,0,.53,0,.78,0,.52,0,.78,0,.52,0,.78,0,.52,0,.78,0,.52,0,.78,0,.52,0,.78,0,.52,0,.78,0,.52,0,.78,0,.52,0,.78,0,.52,0,.78,0,.52,0,.78,0,.52,0,.78,0,.52,0,.77,0,.53,0,.78,0,.52,0,.78,0,.52,0,.78c.19,11.76,6.34,22.76,16.71,29.7,0,.13,0,.27,0,.4s0,.52,0,.78,0,.52,0,.78,0,.52,0,.77,0,.53,0,.78,0,.52,0,.78,0,.52,0,.78,0,.52,0,.78,0,.52,0,.78,0,.52,0,.78,0,.52,0,.78,0,.52,0,.78,0,.52,0,.78,0,.52,0,.78,0,.52,0,.78,0,.52,0,.77,0,.53,0,.78,0,.52,0,.78,0,.52,0,.78,0,.52,0,.78,0,.52,0,.78,0,.52,0,.78,0,.52,0,.78,0,.52,0,.78,0,.52,0,.78,0,.52,0,.78,0,.52,0,.78,0,.52,0,.78,0,.52,0,.77,0,.53,0,.78,0,.52,0,.78,0,.52,0,.78,0,.52,0,.78,0,.52,0,.78,0,.52,0,.78,0,.52,0,.78A65.43,65.43,0,0,0,46.29,470a38,38,0,0,0,6.44,14.42v40.39c0,23.81,15.62,34,29.74,35.42l6.38.62,12-5.19,3.47-3.26c8-7.81,9.74-18.84,9.67-28.82V487.37a39.3,39.3,0,0,0,8.55-15.07,50,50,0,0,0,2-14.78c0-.27,0-.52,0-.78s0-.52,0-.78,0-.52,0-.78,0-.52,0-.78,0-.52,0-.78,0-.52,0-.78,0-.52,0-.78,0-.52,0-.78,0-.52,0-.78,0-.52,0-.78,0-.52,0-.78,0-.51,0-.77,0-.52,0-.78,0-.52,0-.78,0-.52,0-.78,0-.52,0-.78,0-.52,0-.78,0-.52,0-.78,0-.52,0-.78,0-.52,0-.78,0-.52,0-.78,0-.52,0-.78,0-.52,0-.78,0-.52,0-.78,0-.51,0-.77,0-.52,0-.78,0-.52,0-.78,0-.52,0-.78,0-.52,0-.78,0-.52,0-.78,0-.52,0-.78,0-.52,0-.78,0-.52,0-.78,0-.52,0-.78,0-.52,0-.78,0-.52,0-.78,0-.51,0-.77,0-.52,0-.78,0-.52,0-.78,0-.52,0-.78,0-.52,0-.78,0-.52,0-.78,0-.52,0-.78,0-.52,0-.78,0-.52,0-.78,0-.52,0-.78,0-.52,0-.78,0-.52,0-.78,0-.52,0-.78,0-.51,0-.77,0-.52,0-.78,0-.52,0-.78,0-.52,0-.78,0-.52,0-.78,0-.52,0-.78,0-.52,0-.78,0-.52,0-.78,0-.52,0-.78v-.16c5.08-2.75,10-5.63,14.79-8.66,6.19-3.93,11.86-7.9,17.06-11.87,2.06,32.56,16,55.74,39.86,64.55A56.65,56.65,0,0,0,216,459.77c20.71,0,37.21-11.4,49.57-26.26.87.73,1.79,1.42,2.74,2.07a38.91,38.91,0,0,0,22.48,6.82c13.59,0,26.06-6.36,35.16-11,2.19-1.11,4.26-2.17,5.82-2.86,5.69-2.54,11.86-5.07,18.39-7.74,5.61-2.3,11.29-4.63,16.91-7.06,5.7,10.44,16.62,17.76,30.09,19.27a42.94,42.94,0,0,0,4.75.26c12.51,0,27-5,40.86-10l.42-.16c7.46-2.74,36.28-13.69,60.41-27.81A37.49,37.49,0,0,0,514,400.76a41.81,41.81,0,0,0,13.71,2.31c16,0,28.79-9,38.09-15.58,2.53-1.79,4.93-3.49,6.8-4.58,4.54-2.66,11.45-5.71,18.13-8.66l4.88-2.17a66.35,66.35,0,0,0,20.89,18.34v37c0,8.39,1.74,17.84,8.73,25.45A29.19,29.19,0,0,0,647,462.4h1c18.48-.59,29.52-17.53,29.52-33.57,0-.15,0-.3,0-.45s0-.22,0-.33,0-.3,0-.45,0-.22,0-.33,0-.3,0-.45,0-.22,0-.33,0-.3,0-.45,0-.22,0-.33,0-.3,0-.45,0-.22,0-.32,0-.31,0-.46,0-.22,0-.32,0-.3,0-.46,0-.21,0-.32,0-.3,0-.46,0-.21,0-.32,0-.3,0-.45,0-.22,0-.33,0-.3,0-.45,0-.22,0-.33,0-.3,0-.45,0-.22,0-.33,0-.3,0-.45,0-.22,0-.33,0-.3,0-.45,0-.22,0-.33,0-.3,0-.45,0-.22,0-.33,0-.3,0-.45,0-.22,0-.33,0-.3,0-.45,0-.22,0-.33,0-.3,0-.45,0-.22,0-.33,0-.3,0-.45,0-.22,0-.32,0-.3,0-.46,0-.21,0-.32,0-.18,0-.26a28.64,28.64,0,0,0,12.56-12.55c2.63-5.25,3.25-10.76,3.27-17.09q0-.92,0-1.86c0-.26,0-.52,0-.78s0-.52,0-.78,0-.52,0-.78,0-.51,0-.78,0-.51,0-.78,0-.51,0-.78,0-.51,0-.77,0-.52,0-.78,0-.27,0-.4c1.46-1.38,3-2.9,4.53-4.63,24.33-26.87,40.24-74.28,40-116.82V176.26Z"/><path class="cls-2" d="M382.64,301.93c-17.59,10.41-41.12,18.58-60.17,27.06-11.45,5.1-29.14,17.42-41.27,9.09-4.36-3-6.29-7.57-6.09-12.8.42-10.52,6.89-29.74,9.23-41.26,3.7-18.23,8.89-41.48,10.51-59.66.37-4.25-1.16-2.5-3.87-4.67-5.12-4.1-7.22-10.67-3.72-16.56,2.17-3.65,7.11-5.69,11-7,22.66-7.5,50-9.33,73.12-16.67,11.46-1.38,15.15,11.12,7.73,18.85-4.64,4.84-17.76,8.62-24.4,10.66-10.09,3.09-20.55,5.37-30.72,8.18-.13,6.81-4.25,20.66-5.27,27.87l46-13.2c4.52-.22,9.33-1.33,12.68,2.33a12,12,0,0,1,.8,14.57c-4.54,6.09-31.9,13.33-40.21,16.22-6.78,2.36-13.47,5-20.27,7.39a7.08,7.08,0,0,0-3.67,2.88c-.69,2.62-3.6,21.42-5.39,29.41a17.11,17.11,0,0,0,2.42-.74c19.53-8.05,41.24-19,61.12-25.25,8.09-2.55,19.68-3.62,20.93,7.37C394,294,388.74,298.33,382.64,301.93ZM665.85,98.28c4.45-.59,13.08-6.84,17.87-9a110.64,110.64,0,0,1,16.1-5.77c4.55-1.24,10.75-1.24,13.92-5.22A6.18,6.18,0,0,0,710,68.33c-6.33-1.06-18.59,3.24-24.85,5.48-3,1.1-7.87,3.78-10.69,4.37-1.71.35-2-.35-2-2,.22-4.86,1.58-11.82,2.36-16.82,1-6.47,3.73-15.65,3.14-21.94-.38-3.94-3.63-7.89-7.89-7a7.68,7.68,0,0,0-5.58,5.82c-2,15-5.31,30.34-7,45.4C656.68,88.92,655.08,99.72,665.85,98.28ZM681,277a59.17,59.17,0,0,1-9.88,8.72,51.74,51.74,0,0,0-.79,5.67c-.08,1.39,0,4,.09,6.68.23,7.27.32,12.18-.71,14.24a5.42,5.42,0,0,1-4.26,2.89c-.17,0-.32,0-.49,0-3.87-.88-4.74-6.87-5.08-17.62,0-.78-.05-1.43-.07-1.87a6.93,6.93,0,0,0-.1-.89,29.36,29.36,0,0,1-6.73,1.21,153.53,153.53,0,0,0-.67,18.17c.08,5.52.65,11.38,1.21,17,.59,6.26,1.23,12.72,1.23,18.91,0,3.67-2.17,10.6-7.44,10.77H647a6.52,6.52,0,0,1-5-2.1c-3.85-4.19-2.74-13.67-2-19.94.15-1.37.29-2.53.34-3.37.1-2,.23-4.07.35-6.16.52-8.77,1.06-17.84.54-26.14-.09-1.26-.39-4.08-.83-6.84-.25,0-.52-.07-.77-.12-1.28-.22-2.42-.51-3-.66-16-4.53-26-17-31.76-32.73a30.06,30.06,0,0,1-2.89,1.9c-11,6.56-29.56,13.09-41,19.79-11.66,6.83-25.14,21-39.62,16a12,12,0,0,1-7.05-5.61h0v0c-2-3.78-1.81-8.66-.82-13.63v0C497,298.39,451.9,316.86,435.31,323c-9.21,3.39-26.28,9.73-35.64,8.68-19.27-2.15-18.2-25.07-.46-28.66,1.08-5.64.34-11.38.8-17,1.77-21.38,5.06-42.63,6-64.09.16-3.59.61-17.12-.16-19.59s-3.32-.45-5.41-.49c-14.17-.28-15.5-17.46-4.17-24.72,7.23-4.64,24.1-9.38,32.79-11.69,16.53-4.38,54.9-11.75,72.42,1.2.07-.62.15-1.23.23-1.82a24.87,24.87,0,0,0,.33-3,91.56,91.56,0,0,0-.78-17.28,12.54,12.54,0,0,1-3.42-2.18c-6.5-6-9.95-20.07-13.78-28l-.89-.87c-6.53,1.14-13.28,1.72-19.8,3-3.49.67-10.28,1.38-11.76,4.85-2.8,6.58-3.14,18-7.1,23.82-3.82,5.65-13.19,5.43-16.24-.76-2.39-4.85-1.13-8.86.1-13.66h0c-5.09,2.55-17.29,6.89-22,8.78-7.69,3.08-15.3,6.19-23,9.17-2.07.79-5.11,2.27-7.19,2.54-7.09,1-11.89-3.66-13.11-9.55-.74.28-1.53.53-2.05.77-15.35,7.08-39.08,12.94-55.25,18-9.33-.61-13.82-7.53-10.7-16.47,1.94-5.52,11.54-15.36,15.58-20.5,10.19-13,20.15-26.13,30.93-38.63l-16,5.44c-6.63,1.86-20.3,6.06-23.09-3.26-4.22-14.11,13.5-15.2,22.64-17.8,10-2.85,25-8.67,34.66-10,12-1.67,10,9.93,8.27,18Q351.32,99,333.56,120c-.43.51-1.22.64-1.54,1-3.32,3.91-8.51,9.6-11.29,13.62-.72,1-1.7,2-1.48,3.38,11.28-3.22,29.23-7.49,40.58-11.51a7.33,7.33,0,0,1,1.91-.42c1.83-.16,4.55-.12,5.56,1,2.14-3,4.67-6,6.33-8.24,11.42-15.55,24.2-30,34.94-46.1-1.5-1.21-20.09,6.82-23.48,7.73-3.57,1-6.95,1.62-10.28-.59-6.24-4.15-5.84-11.69-.3-16.29,4.35-3.61,18.82-7.91,24.91-10,5.38-1.86,21.33-8,26-7.7,7.61.54,12.19,7.07,11.19,14.52-.67,5.05-15.29,24.17-19.18,29.48-7.69,10.51-15.64,21-24.28,30.69l-2.87,4.28c7.43-2.49,14.59-6.15,22-8.61,4.54-1.5,16.14-4.46,20.59-2.64l.24.11c4-13.65,8.64-27.35,12.41-41,3.45-12.55,6.15-29.16,10.71-40.81A15,15,0,0,1,467.4,23c8.46-1.23,12.1,2.71,14.89,10,6.91,18.11,9.26,40.56,14.87,59.57.09.33.2.65.3,1l25.9-4.89c4.9-.87,8.67,5,8.19,9.32-1.18,10.56-20.53,9.58-28.35,11.33,2.16,5.31,4.41,10.56,6.43,16,1.88,5.11,4.83,13.8.6,18.34a5.4,5.4,0,0,1-1.34,1v.06a67.78,67.78,0,0,0,.49,13.56c.27,2.5.54,5.07.67,7.86l0,.54c.15,3.08.31,6.57-1.8,7.95a23.67,23.67,0,0,1,2,7c2.78,21.07-13.4,29.5-27.59,39.84-1,.72-1.74.92-1.42,2.43,8.34,1.19,25,4.9,32.26,9.74a33.17,33.17,0,0,1,8.6,9.62h0c3.55-19.95,6.34-40.93,8.66-60.05,1.65-13.62,1.49-29.23,4.6-42.44,5.47-23.33,33-16.11,29.72,6.64L547.3,259.09c11.21-4.46,26.71-11.61,37.18-15.85,3.72-1.52,8.41-3.35,12.34-3.92a9.93,9.93,0,0,1,2.69-.22c-3-24.69.4-51.63,5.52-68.82,9.94-33.37,42.83-92.34,84.33-59.91C733.33,144.72,714.47,240,681,277ZM482.31,96a1.76,1.76,0,0,0-.33-.43l-1.87-7.33L471.44,47.9a1.7,1.7,0,0,0-1.91-1,.89.89,0,0,0-.75.31,1.46,1.46,0,0,0-.64.89,1.17,1.17,0,0,0-.05.11C466,52.3,455,96.91,453.64,101.68l.06,0c-.28,1.09.56,3,2.05,2.46,12.11-2.7,14.36-4.68,26.72-6.11C483.11,97.8,482.76,96.83,482.31,96Zm-51.82,128c-.1,1.39.8,3.71,4,3.17,9.91-1.71,33.85-18.57,42.09-25.51,4.69-3.94,10.63-11.48,3.32-16.12-6.3-4-25.38-.67-33,1-6.56,1.44-11.89,2.07-13.32,9.77C434.15,199.32,430.11,220.41,430.49,224.05Zm50.82,20c-8.42-2.29-20.65.76-29.29,2.44a182.4,182.4,0,0,0-18.83,4.26c-3,.94-5.56,1.13-6.46,4.66-2.65,10.32-2.55,32-5.2,42.48,0,.12,0,.23,0,.35a1.61,1.61,0,0,0,.1.78c.32,1.49,1.3,2.09,2.32,1.87a1.74,1.74,0,0,0,.39,0c1.71.05,12.27-4.7,14.73-5.8,13.84-6.21,32.25-15.71,43.45-25.83C491.34,261.33,496.17,248.05,481.31,244Zm203.05-94.43c-3.72-10.63-9.88-20.88-22.89-18.64-14.35,2.47-26.7,28.94-31.2,41.48-7.64,21.32-14.39,70.57,1.92,88.32,16.59,18.08,35.43-6.81,43.35-20.8C689.33,215.59,693.57,176,684.36,149.58Zm-415.51,4.15c1.1,10.55,13.94,11.8,18.19,2.14a15.81,15.81,0,0,0,1.34-6.66c.77-7.06,1.34-20.53,2.31-26.91,1.61-10.53,7.15-30,6.23-39.58-1-10.56-15-13-20-3.92-1.78,3.28-2.51,12.91-2.95,17.08-1,9.47-1.36,19.16-2.28,28.65C270.9,133.16,268,145.46,268.85,153.73ZM603.17,54.82c-1.44,7.48-1.86,15.14-3.27,22.62-1.3,6.87-4.33,14.6-5.22,21.21-.65,4.77,1.32,9.44,6.52,10.11s15.95-4.91,21.38-6.82c7.77-2.72,16.31-4.68,23.79-8.1,4.06-1.86,8-4.09,6.88-9.33-1.26-5.92-10-3-14.13-2C633.05,84,626,86,620.09,88.06c-1.14.39-7.77,3.39-8.21,3l2.34-12.24c8.61-2.84,18.56-2.88,27.07-6,8.32-3,8.79-12.55-.88-11.82-7.68,1.56-15.51,2.81-23.12,4.5.89-3,2.07-10.37,2.42-11.3,8.25-1.94,16.81-2.35,25.15-3.79,5.77-1,11.85-2.34,10.75-9.72-.59-3.93-5.29-4.13-8.41-3.9-5,.38-10.74,1.74-16,2.29-8.11.85-21.25.42-28.48,3-4.27,1.5-6.73,5.72-3.85,9.77C600.2,53.6,601.61,53.69,603.17,54.82Zm-69.61,7.65a8,8,0,0,1,1.6-11.94c3.68-2.47,17.05-4.9,21.85-5.5,18.83-2.33,42.87,2.39,41.22,26.18-1.13,16.4-17.55,28.27-30.13,36.42-4.79,3.1-19.71,12.14-24.81,12.14s-7.14-2.75-6.62-7.57c.5-4.61,5.5-4.92,5.92-7.76.19-1.31-.1-2.75,0-4.08.95-10.83,1.59-21.55,2.28-32.35.09-1.43-.07-2.9,0-4.33C541.35,65.13,536.35,65.66,533.56,62.47ZM554,100.32a4.93,4.93,0,0,0,0,.71,1.05,1.05,0,0,0,.7,1.32.8.8,0,0,0,.4.08h.1c1.5,0,8.52-4.67,10.14-5.75,8.88-5.91,28.64-20.17,19.84-32.53-4.45-6.24-16.9-8.23-24-7.19-5.64.82-3.68,7.63-4,12s-.59,8.5-.92,12.74C556,85.7,554,96.37,554,100.32ZM48.3,141.07c2.57-12.55,4.58-25.15,6.51-37.81,1-7,.5-18.48,8.41-21.62,7-2.76,11.92,2.53,11.33,9.36-3.66,18.32-8.06,35.55-11.17,54,.78.76,9.27-2.45,10.91-3,2.78-1,15.41-5.4,17.91-4.89a4.06,4.06,0,0,1,2,1c4.28-15.36,10.06-30.85,14.93-45.94,2.22-6.84,5.12-21.84,10.47-26a12.48,12.48,0,0,1,5-2.36,9.92,9.92,0,0,1,11.21,5.79c4.54,16,8.64,32.17,13.84,48l.26-.07c4.09-.92,14.82-2.78,18.89-3.09,3-.23,5.69-.41,7.64,2.21,3.33,4.49.23,10.3-4.32,12.44-1.43.67-12.9,3-17.23,3.24,1.61,4.12,6.34,12.65,6.76,16.38.3,2.76-2.63,6-5.28,6.48-11.94,2.11-13.49-9.26-17.12-17.62l-.87-.4c-6,1.64-12,3.22-17.85,5.32-1.83.65-7.59,2.63-8.77,3.52-1.62,1.23-3.11,8.22-4.17,10.62-1.71,3.89-4.65,7.32-9.2,7.56a7.39,7.39,0,0,1-6.37-3c-1.9-2.69-1.71-6.67-1-10.46h0c-4.84,2.63-16.37,8.13-17.8,8.92-5.33,2.93-13.31,9.95-19.11,10.43C38.2,171.33,46.59,149.45,48.3,141.07Zm64.42-8.89a1.38,1.38,0,0,0,.26.88,3.11,3.11,0,0,0,1.92.3c.83-.39,1.69-2.22,2.46-3,2.74-2.75,9.61-4.62,14.31-5.73,1.2-.29,5.59-.2,4.94-2.44L133.55,114a2.07,2.07,0,0,1-.06-.24c-1.42-5.47-3.35-13.22-5.26-18.37a5.7,5.7,0,0,0-1.09-1.89.83.83,0,0,0-.75-.43.58.58,0,0,0-.49.22,5.8,5.8,0,0,0-1.35,2.07C123,98.75,113.78,126.37,113,130A12,12,0,0,0,112.72,132.18ZM268.56,300.73c-7.6,26.14-31.34,67.51-64.37,55.35-28.51-10.51-27.05-53.13-22.85-77.58,3-17.89,7.59-39.59,12.15-57.12a48.87,48.87,0,0,1,2.92-8.91,43.88,43.88,0,0,1,.26-10.11c.21-2,.42-4.06.45-6,0-.77.06-1.88.11-3.16.17-4.76.44-12.71-.26-15.42l-.3-1.19a13.88,13.88,0,0,1-1.62-5.17c-.53-4.5.95-14.93-.13-18.18-.25-.72-2.74-1.92-3.61-3.27a9.86,9.86,0,0,1,1.37-12.3c.67-.67,1.89-1,2.37-1.65s1-4.15,1.1-5.2c.77-10.41.85-21.06,1.7-31.49.23-2.87.76-5.75,1.11-8.64l-4.58,2.24v0a19.6,19.6,0,0,1-3.83,1.4c-6.16,1.72-15,1.19-17-6.13C171,79.26,183.28,72.44,189.82,69c16.24-8.62,39.13-16.21,57.27-10.28,24,7.85,27.9,34.12,13,52.73-7.93,9.87-22.31,20.5-33,27.36-2.37,1.52-10.21,5.34-11.45,6.87-.9,1.13-.61,7.33-.54,9.22.25,6.13,1.25,12.71.6,18.92-.31,3-3.74,7.49-6.71,8.16a11.71,11.71,0,0,1-3.48.29,6.6,6.6,0,0,0-.2,1.11,145.69,145.69,0,0,0,0,18.7c0,.52.1,1.16.18,1.89a2.16,2.16,0,0,0,0,.35c5.81-2,10.69-.35,14.52,5.17,2.72,3.95,2.65,9.29,2.1,14-1.32,11.63-6.75,26.69-9.06,38.82-2.76,14.29-6.77,36-4.35,50,1.34,7.68,9.08,14.67,16.5,9.2,21.65-16.06,24.13-74.63,26.08-99.63.63-8.29-.51-21.38,5.52-27.86,4.48-4.82,13.51-5.2,18.14-.53,2.55,2.55,4.24,9.38,4.56,13C281.61,231.68,275.69,276.14,268.56,300.73ZM212.12,129.37h0c.12.74.91,1.26,2,1.17,1.37-.11,10.12-6.27,12-7.56,8.32-5.84,22.31-16.07,25.86-25.67,1.64-4.41,1.7-7.46-.17-11.83-4.34-10.18-18.61-9.35-27.71-7.45-6.34,1.33-7,2.27-7.84,8.76-.67,5.51-.63,11.56-1.19,17.12-.5,4.88-1.87,10.65-2.25,15.51l-.64,9.48a1.25,1.25,0,0,0,0,.38Zm-85,176.19a223.45,223.45,0,0,1-27.79,15c-.81,1.19.49,3.72.54,5.54.34,12.62.27,25.11.79,37.68.32,7.38,2.31,15.77,0,23.12a16.22,16.22,0,0,1-11.07,11,159.15,159.15,0,0,0-1.28,23.4,85.76,85.76,0,0,0,1.28,9.29A93.31,93.31,0,0,1,91,440.07c.42,6.35.3,14.49-2.56,17.27l-.29.27-3,1.28-.54-.05c-10.11-1-9.3-11.46-9-15.38a27.06,27.06,0,0,1,1-4.9,22.17,22.17,0,0,0,.79-3.65,165.76,165.76,0,0,0-1-33.48c-.12-.6-1.28-4.12-2-5.92a14.9,14.9,0,0,1-5.77-9c-1.8-8.31-.54-14-.37-21.85s-.24-15.43,0-23.14c0-2,1.11-3.82.77-5.73-.69-4-4.15-2.93-7.17-4-7.16-2.57-12.77-9.2-10.28-17.2.83-2.57,5.2-7.08,7.39-8.87,1.87-1.51,8.26-4.74,9.1-5.84.54-.7,1-3.43,1.1-4.47,2-23.78,2.84-48.1,4.27-71.85.07-1.19-.08-3.75-.11-6.22-6.18,3.5-22.74,11.09-26.43,12.18-9.25,2.74-21.81.62-23.71-10.43-1.95-11.25,8.05-17.64,16.31-22.62,21.14-12.73,51.56-25.57,76.27-27.22,29.87-2,68.66,12.42,71.42,46.6C190.32,255.86,158,285.92,127.15,305.56ZM115.76,199.24c-2.49.35-12.69,2.19-14,3.52-2.89,2.9-1.59,14-1.89,18.21-1.09,15.27-3.62,30.84-4.29,46.17-.08,1.81-.69,24.2-.22,24.73a1.85,1.85,0,0,0,1.26.18l.06,0c2.65.23,15.2-6.62,18-8.39,18.52-11.72,44-28.15,49.11-51C170.67,201.91,139.1,196,115.76,199.24Z"/></g></g></svg>